PathFileType	4	(X/Y/Z)	C:\Users\86182\Documents\cortex\Trimmed_M3_H13.trc
DataRate	CameraRate	NumFrames	NumMarkers	Units	OrigDataRate	OrigDataStartFrame	OrigNumFrames
100.00	100.00	       169	2	mm	100.00	721	       901
Frame#	Time	gripper			box			
		X1	Y1	Z1	X2	Y2	Z2	

721	7.200	267.80612	173.10184	292.29813	267.55127	172.04414	151.88684	
722	7.210	267.80347	173.10143	292.29395	267.55127	172.04414	151.88686	
723	7.220	267.80133	173.10132	292.28879	267.55127	172.04414	151.88686	
724	7.230	267.79999	173.10159	292.28400	267.55127	172.04414	151.88686	
725	7.240	267.79932	173.10219	292.28052	267.55127	172.04414	151.88686	
726	7.250	267.79913	173.10304	292.27896	267.55127	172.04414	151.88686	
727	7.260	267.79944	173.10402	292.27957	267.55127	172.04414	151.88686	
728	7.270	267.80032	173.10490	292.28204	267.55127	172.04414	151.88684	
729	7.280	267.80200	173.10562	292.28583	267.55127	172.04414	151.88684	
730	7.290	267.80453	173.10617	292.29034	267.55127	172.04414	151.88684	
731	7.300	267.80762	173.10661	292.29498	267.55127	172.04414	151.88684	
732	7.310	267.81082	173.10698	292.29941	267.55127	172.04414	151.88684	
733	7.320	267.81366	173.10722	292.30322	267.55127	172.04414	151.88684	
734	7.330	267.81577	173.10719	292.30606	267.55127	172.04414	151.88684	
735	7.340	267.81705	173.10687	292.30746	267.55127	172.04414	151.88684	
736	7.350	267.81754	173.10643	292.30713	267.55127	172.04414	151.88684	
737	7.360	267.81763	173.10617	292.30536	267.55127	172.04414	151.88684	
738	7.370	267.81757	173.10631	292.30261	267.55127	172.04414	151.88686	
739	7.380	267.81741	173.10680	292.29944	267.55127	172.04414	151.88686	
740	7.390	267.81717	173.10747	292.29633	267.55127	172.04414	151.88686	
741	7.400	267.81671	173.10809	292.29364	267.55127	172.04414	151.88686	
742	7.410	267.81586	173.10851	292.29141	267.55127	172.04414	151.88686	
743	7.420	267.81458	173.10860	292.28989	267.55127	172.04414	151.88686	
744	7.430	267.81317	173.10843	292.28949	267.55127	172.04414	151.88686	
745	7.440	267.81213	173.10812	292.29059	267.55127	172.04414	151.88686	
746	7.450	267.81198	173.10785	292.29346	267.55127	172.04414	151.88686	
747	7.460	267.81308	173.10779	292.29791	267.55127	172.04414	151.88686	
748	7.470	267.81531	173.10803	292.30344	267.55127	172.04414	151.88686	
749	7.480	267.81830	173.10855	292.30920	267.55127	172.04414	151.88687	
750	7.490	267.82150	173.10915	292.31421	267.55127	172.04414	151.88687	
751	7.500	267.82425	173.10957	292.31763	267.55127	172.04414	151.88687	
752	7.510	267.82620	173.10974	292.31909	267.55127	172.04414	151.88687	
753	7.520	267.82730	173.10971	292.31857	267.55127	172.04414	151.88687	
754	7.530	267.82761	173.10954	292.31628	267.55127	172.04413	151.88686	
755	7.540	267.82730	173.10930	292.31277	267.55127	172.04413	151.88686	
756	7.550	267.82648	173.10893	292.30896	267.55127	172.04413	151.88686	
757	7.560	267.82538	173.10844	292.30579	267.55127	172.04411	151.88684	
758	7.570	267.82431	173.10786	292.30386	267.55127	172.04411	151.88684	
759	7.580	267.82361	173.10736	292.30353	267.55127	172.04413	151.88684	
760	7.590	267.82321	173.10707	292.30469	267.55127	172.04414	151.88686	
761	7.600	267.82288	173.10706	292.30682	267.55127	172.04419	151.88689	
762	7.610	267.82233	173.10721	292.30927	267.55127	172.04425	151.88693	
763	7.620	267.82135	173.10744	292.31128	267.55124	172.04436	151.88699	
764	7.630	267.82010	173.10764	292.31219	267.55124	172.04448	151.88705	
765	7.640	267.81888	173.10773	292.31149	267.55121	172.04462	151.88713	
766	7.650	267.81802	173.10770	292.30920	267.55121	172.04472	151.88721	
767	7.660	267.81778	173.10760	292.30591	267.55121	172.04477	151.88722	
768	7.670	267.81815	173.10757	292.30249	267.55121	172.04472	151.88721	
769	7.680	267.81903	173.10770	292.29980	267.55121	172.04462	151.88713	
770	7.690	267.82022	173.10793	292.29797	267.55124	172.04448	151.88705	
771	7.700	267.82126	173.10815	292.29688	267.55124	172.04436	151.88698	
772	7.710	267.82187	173.10837	292.29633	267.55127	172.04425	151.88693	
773	7.720	267.82190	173.10846	292.29617	267.55127	172.04419	151.88689	
774	7.730	267.82147	173.10834	292.29645	267.55127	172.04414	151.88686	
775	7.740	267.82077	173.10796	292.29730	267.55127	172.04413	151.88684	
776	7.750	267.81998	173.10745	292.29883	267.55127	172.04411	151.88684	
777	7.760	267.81906	173.10699	292.30096	267.55127	172.04411	151.88684	
778	7.770	267.81799	173.10669	292.30341	267.55127	172.04413	151.88684	
779	7.780	267.81693	173.10657	292.30566	267.55127	172.04413	151.88684	
780	7.790	267.81607	173.10669	292.30734	267.55127	172.04413	151.88684	
781	7.800	267.81570	173.10706	292.30804	267.55127	172.04414	151.88684	
782	7.810	267.81586	173.10760	292.30762	267.55127	172.04414	151.88686	
783	7.820	267.81638	173.10823	292.30621	267.55127	172.04414	151.88686	
784	7.830	267.81668	173.10873	292.30377	267.55127	172.04414	151.88686	
785	7.840	267.81635	173.10893	292.30042	267.55127	172.04414	151.88686	
786	7.850	267.81543	173.10870	292.29636	267.55127	172.04414	151.88686	
787	7.860	267.81436	173.10800	292.29214	267.55127	172.04414	151.88686	
788	7.870	267.81357	173.10695	292.28860	267.55127	172.04414	151.88686	
789	7.880	267.81323	173.10580	292.28638	267.55127	172.04414	151.88686	
790	7.890	267.81305	173.10484	292.28589	267.55127	172.04414	151.88684	
791	7.900	267.81284	173.10431	292.28717	267.55127	172.04414	151.88684	
792	7.910	267.81262	173.10431	292.29010	267.55127	172.04414	151.88684	
793	7.920	267.81253	173.10481	292.29446	267.55127	172.04414	151.88686	
794	7.930	267.81271	173.10567	292.29962	267.55127	172.04414	151.88686	
795	7.940	267.81317	173.10674	292.30481	267.55127	172.04414	151.88686	
796	7.950	267.81390	173.10788	292.30902	267.55127	172.04414	151.88686	
797	7.960	267.81464	173.10890	292.31134	267.55127	172.04414	151.88686	
798	7.970	267.81512	173.10959	292.31104	267.55127	172.04414	151.88686	
799	7.980	267.81500	173.10985	292.30798	267.55127	172.04414	151.88686	
800	7.990	267.81421	173.10974	292.30270	267.55127	172.04414	151.88686	
801	8.000	267.81293	173.10947	292.29642	267.55127	172.04414	151.88686	
802	8.010	267.81174	173.10922	292.29059	267.55127	172.04414	151.88684	
803	8.020	267.81107	173.10912	292.28638	267.55127	172.04414	151.88684	
804	8.030	267.81128	173.10909	292.28452	267.55127	172.04414	151.88684	
805	8.040	267.81223	173.10896	292.28506	267.55127	172.04414	151.88684	
806	8.050	267.81339	173.10860	292.28738	267.55127	172.04414	151.88684	
807	8.060	267.81427	173.10789	292.29065	267.55127	172.04414	151.88684	
808	8.070	267.81464	173.10695	292.29419	267.55127	172.04414	151.88684	
809	8.080	267.81451	173.10597	292.29755	267.55127	172.04414	151.88684	
810	8.090	267.81400	173.10516	292.30017	267.55127	172.04414	151.88686	
811	8.100	267.81320	173.10463	292.30182	267.55127	172.04414	151.88686	
812	8.110	267.81244	173.10442	292.30212	267.55127	172.04414	151.88686	
813	8.120	267.81189	173.10451	292.30121	267.55127	172.04414	151.88686	
814	8.130	267.81168	173.10481	292.29926	267.55127	172.04414	151.88686	
815	8.140	267.81161	173.10522	292.29663	267.55127	172.04414	151.88686	
816	8.150	267.81140	173.10561	292.29364	267.55127	172.04414	151.88686	
817	8.160	267.81091	173.10583	292.29074	267.55127	172.04414	151.88686	
818	8.170	267.81024	173.10583	292.28851	267.55127	172.04414	151.88686	
819	8.180	267.80969	173.10565	292.28745	267.55127	172.04414	151.88684	
820	8.190	267.80948	173.10538	292.28772	267.55127	172.04414	151.88684	
821	8.200	267.80945	173.10506	292.28888	267.55127	172.04414	151.88684	
822	8.210	267.80933	173.10474	292.29041	267.55127	172.04414	151.88684	
823	8.220	267.80905	173.10443	292.29221	267.55127	172.04414	151.88684	
824	8.230	267.80887	173.10423	292.29425	267.55127	172.04414	151.88684	
825	8.240	267.80899	173.10422	292.29657	267.55127	172.04414	151.88684	
826	8.250	267.80951	173.10443	292.29907	267.55127	172.04414	151.88686	
827	8.260	267.81027	173.10478	292.30142	267.55127	172.04414	151.88686	
828	8.270	267.81094	173.10504	292.30301	267.55127	172.04414	151.88686	
829	8.280	267.81146	173.10512	292.30338	267.55127	172.04414	151.88686	
830	8.290	267.81183	173.10501	292.30237	267.55127	172.04414	151.88686	
831	8.300	267.81216	173.10477	292.30029	267.55127	172.04414	151.88686	
832	8.310	267.81244	173.10449	292.29755	267.55127	172.04414	151.88686	
833	8.320	267.81259	173.10426	292.29474	267.55127	172.04414	151.88686	
834	8.330	267.81250	173.10413	292.29224	267.55127	172.04414	151.88684	
835	8.340	267.81213	173.10405	292.29047	267.55127	172.04414	151.88684	
836	8.350	267.81161	173.10406	292.28976	267.55127	172.04414	151.88684	
837	8.360	267.81113	173.10422	292.29041	267.55127	172.04414	151.88684	
838	8.370	267.81076	173.10449	292.29208	267.55127	172.04414	151.88684	
839	8.380	267.81046	173.10477	292.29416	267.55127	172.04414	151.88684	
840	8.390	267.80997	173.10495	292.29590	267.55127	172.04414	151.88684	
841	8.400	267.80908	173.10497	292.29669	267.55127	172.04414	151.88684	
842	8.410	267.80771	173.10480	292.29626	267.55127	172.04414	151.88684	
843	8.420	267.80606	173.10448	292.29456	267.55127	172.04414	151.88686	
844	8.430	267.80435	173.10410	292.29175	267.55127	172.04414	151.88686	
845	8.440	267.80298	173.10378	292.28821	267.55127	172.04414	151.88686	
846	8.450	267.80215	173.10345	292.28461	267.55127	172.04414	151.88686	
847	8.460	267.80188	173.10310	292.28137	267.55127	172.04414	151.88686	
848	8.470	267.80200	173.10269	292.27875	267.55127	172.04414	151.88686	
849	8.480	267.80243	173.10225	292.27695	267.55127	172.04414	151.88686	
850	8.490	267.80313	173.10178	292.27609	267.55127	172.04414	151.88686	
851	8.500	267.80396	173.10130	292.27625	267.55127	172.04414	151.88684	
852	8.510	267.80469	173.10088	292.27734	267.55127	172.04414	151.88684	
853	8.520	267.80548	173.10059	292.27936	267.55127	172.04414	151.88684	
854	8.530	267.80655	173.10049	292.28235	267.55127	172.04414	151.88684	
855	8.540	267.80789	173.10057	292.28583	267.55127	172.04414	151.88684	
856	8.550	267.80914	173.10074	292.28912	267.55127	172.04414	151.88684	
857	8.560	267.80988	173.10092	292.29156	267.55127	172.04414	151.88684	
858	8.570	267.80997	173.10109	292.29272	267.55127	172.04414	151.88684	
859	8.580	267.80963	173.10123	292.29251	267.55127	172.04414	151.88684	
860	8.590	267.80920	173.10136	292.29105	267.55127	172.04414	151.88684	
861	8.600	267.80893	173.10155	292.28864	267.55127	172.04414	151.88684	
862	8.610	267.80890	173.10179	292.28577	267.55127	172.04414	151.88686	
863	8.620	267.80899	173.10211	292.28308	267.55127	172.04414	151.88686	
864	8.630	267.80899	173.10239	292.28091	267.55127	172.04414	151.88686	
865	8.640	267.80847	173.10246	292.27924	267.55127	172.04414	151.88684	
866	8.650	267.80716	173.10231	292.27802	267.55127	172.04414	151.88684	
867	8.660	267.80511	173.10199	292.27728	267.55127	172.04414	151.88684	
868	8.670	267.80267	173.10161	292.27710	267.55127	172.04414	151.88684	
869	8.680	267.80029	173.10123	292.27747	267.55127	172.04414	151.88684	
870	8.690	267.79828	173.10091	292.27829	267.55127	172.04414	151.88684	
871	8.700	267.79684	173.10065	292.27942	267.55127	172.04414	151.88684	
872	8.710	267.79626	173.10049	292.28082	267.55127	172.04414	151.88684	
873	8.720	267.79666	173.10046	292.28232	267.55127	172.04414	151.88684	
874	8.730	267.79785	173.10049	292.28360	267.55127	172.04414	151.88684	
875	8.740	267.79938	173.10054	292.28445	267.55127	172.04414	151.88684	
876	8.750	267.80090	173.10072	292.28482	267.55127	172.04414	151.88684	
877	8.760	267.80237	173.10110	292.28488	267.55127	172.04414	151.88684	
878	8.770	267.80392	173.10165	292.28491	267.55127	172.04414	151.88684	
879	8.780	267.80566	173.10216	292.28510	267.55127	172.04414	151.88684	
880	8.790	267.80731	173.10242	292.28549	267.55127	172.04414	151.88684	
881	8.800	267.80847	173.10234	292.28598	267.55127	172.04414	151.88684	
882	8.810	267.80890	173.10205	292.28656	267.55127	172.04414	151.88684	
883	8.820	267.80844	173.10172	292.28717	267.55127	172.04414	151.88684	
884	8.830	267.80740	173.10143	292.28784	267.55127	172.04414	151.88684	
885	8.840	267.80624	173.10126	292.28839	267.55127	172.04414	151.88684	
886	8.850	267.80536	173.10117	292.28867	267.55127	172.04414	151.88684	
887	8.860	267.80499	173.10114	292.28836	267.55127	172.04414	151.88684	
888	8.870	267.80518	173.10121	292.28760	267.55127	172.04414	151.88684	
889	8.880	267.80600	173.10144	292.28693	267.55127	172.04414	151.88684	
